<svg viewBox="0 0 72 72" xmlns="http://www.w3.org/2000/svg"><path d="m16.4055 11.3783h39.5645v49.0659h-39.5645z" fill="#fff"/><path d="m39.9312 40.2224 11.294-11.294 7.3756 7.3756-11.1981 11.1981" fill="#f4aa41"/><path d="m37.9415 46.8185 1.9605-5.6485 6.4542 6.454-5.6487 1.9606" fill="#a57939"/><path d="m54.6088 25.0518 3.9786-3.9786 7.8585 7.8584-3.9448 3.9449" fill="#ea5a47"/><path d="m50.4943 29.6593 4.6075-4.6074 7.3755 7.3755-4.5684 4.5684" fill="#d0cfce"/><path d="m38.0702 47.191 2.3862 2.3862-3.4643 1.2794z"/><path d="m22.3215 19.875h27" style="fill:none;stroke:#000;stroke-linecap:round;stroke-linejoin:round;stroke-miterlimit:10;stroke-width:2"/><path d="m22.3215 27.875h25.6" style="fill:none;stroke:#000;stroke-linecap:round;stroke-linejoin:round;stroke-miterlimit:10;stroke-width:2"/><path d="m22.3215 35.875h17.1097" style="fill:none;stroke:#000;stroke-linecap:round;stroke-linejoin:round;stroke-miterlimit:10;stroke-width:2"/><path d="m22.3215 43.875h12.2069" style="fill:none;stroke:#000;stroke-linecap:round;stroke-linejoin:round;stroke-miterlimit:10;stroke-width:2"/><path d="m22.3215 51.875h10.146" style="fill:none;stroke:#000;stroke-linecap:round;stroke-linejoin:round;stroke-miterlimit:10;stroke-width:2"/><path d="m38.0702 47.191 2.3862 2.3862-3.4643 1.2794z"/><g fill="none" stroke="#000" stroke-linecap="round" stroke-linejoin="round" stroke-miterlimit="10"><path d="m40.6919 49.591 5.6643-1.967 15.5899-15.59-6.4541-6.4541-15.59 15.5901-1.9738 5.671z" stroke-width="2"/><path d="m58.0856 22.9863 1.5555-1.5554 6.4541 6.4541-1.6318 1.6318" stroke-width="2"/><path d="m40.2788 40.7932 6.4541 6.4541" stroke-width="2"/><path d="m37.9323 46.8277-1.383 4.1491 4.1582-1.3922" stroke-width="2"/><path d="m51.3023 30.1572 6.2019 6.2019" stroke-width="2"/><path d="m55.3215 44.228v15.647h-39v-48h39v8.4559" stroke-width="2.0206"/></g></svg>