<svg viewBox="0 0 512 512" xmlns="http://www.w3.org/2000/svg"><path d="m136.6 138.79a64.003 64.003 0 0 0 -43.31 41.35l-93.29 279.86 14.69 14.69 150.11-150.11c-2.99-6.26-4.8-13.18-4.8-20.58 0-26.51 21.49-48 48-48s48 21.49 48 48-21.49 48-48 48c-7.4 0-14.32-1.81-20.58-4.8l-150.11 150.11 14.69 14.69 279.86-93.29a64.003 64.003 0 0 0 41.35-43.31l42.79-151.4-128-128zm361.34-64.62-60.11-60.11c-18.75-18.75-49.16-18.75-67.91 0l-56.55 56.55 128.02 128.02 56.55-56.55c18.75-18.75 18.75-49.15 0-67.91z"/></svg>